<svg version="1.0" xmlns="http://www.w3.org/2000/svg"
 width="880.000000pt" height="744.000000pt" viewBox="0 0 880.000000 744.000000"
 preserveAspectRatio="xMidYMid meet">
<g transform="translate(0.000000,744.000000) scale(0.100000,-0.100000)"
fill="currentColor" stroke="none">
<path d="M1145 7029 c-189 -25 -340 -153 -401 -339 -18 -52 -19 -123 -22
-1184 -1 -622 0 -1136 2 -1143 4 -9 36 11 98 58 156 120 396 249 610 329 l86
33 4 361 3 361 33 67 c82 167 296 263 698 313 275 35 983 35 1256 1 395 -50
619 -149 698 -311 24 -47 25 -61 28 -252 l3 -203 150 0 c82 0 152 -1 157 -2 4
-2 10 85 13 192 7 238 16 268 100 353 117 116 320 185 674 228 252 30 945 27
1215 -5 387 -47 612 -147 698 -310 l27 -51 3 -366 3 -366 112 -43 c223 -86
459 -218 620 -347 l67 -54 0 1128 c0 971 -2 1137 -15 1192 -46 195 -211 338
-416 361 -103 12 -6416 11 -6504 -1z"/>
<path d="M3975 4793 c-605 -11 -1217 -61 -1636 -133 -444 -77 -771 -178 -1059
-327 -321 -165 -557 -399 -695 -687 -109 -228 -175 -545 -175 -838 l0 -88
3996 0 3997 0 -7 133 c-29 539 -166 900 -451 1182 -246 245 -585 416 -1065
539 -652 168 -1646 243 -2905 219z"/>
<path d="M407 2393 c-4 -3 -7 -399 -7 -880 l0 -873 559 0 559 0 4 373 c5 352
6 375 26 428 26 65 59 100 127 131 l50 23 2635 3 c1940 2 2653 0 2702 -8 95
-16 148 -53 184 -127 l29 -58 3 -382 3 -383 560 0 559 0 0 880 0 880 -3993 0
c-2197 0 -3997 -3 -4000 -7z"/>
</g>
</svg>
