<svg version="1.0" xmlns="http://www.w3.org/2000/svg" viewBox="0 0 900.000000 520.000000" preserveAspectRatio="xMidYMid meet">
<g transform="translate(0.000000,520.000000) scale(0.100000,-0.100000)"
fill="currentColor" stroke="none">
<path d="M4386 4690 c-1 -3 -2 -104 -1 -225 l0 -220 128 -3 127 -3 -2 228 -3
228 -123 0 c-68 0 -125 -2 -126 -5z"/>
<path d="M3613 4513 l-102 -56 16 -31 c8 -17 58 -111 110 -208 l95 -177 97 51
c53 28 102 57 110 64 12 11 -3 44 -94 213 -60 111 -113 201 -119 200 -6 0 -57
-25 -113 -56z"/>
<path d="M5166 4371 c-58 -109 -106 -201 -106 -204 0 -3 24 -19 53 -35 28 -16
77 -43 109 -61 l56 -31 60 112 c32 62 82 156 111 209 l51 96 -27 14 c-16 8
-62 33 -104 57 -42 23 -81 42 -87 42 -6 0 -58 -89 -116 -199z"/>
<path d="M2946 3942 c-38 -53 -68 -101 -66 -107 2 -10 379 -285 391 -285 3 0
39 46 79 101 54 77 69 104 59 110 -8 4 -98 68 -201 143 -103 75 -189 136 -190
136 -2 0 -34 -44 -72 -98z"/>
<path d="M5800 3903 c-102 -74 -191 -138 -199 -142 -11 -7 2 -31 59 -110 41
-56 79 -100 84 -98 10 4 371 261 388 276 7 6 -127 204 -140 208 -4 1 -90 -59
-192 -134z"/>
<path d="M4425 3983 c-152 -11 -348 -65 -465 -129 -295 -162 -468 -427 -498
-765 -11 -121 -7 -203 14 -314 34 -176 95 -315 270 -617 64 -110 134 -239 156
-287 45 -97 88 -252 88 -317 l0 -44 126 0 127 0 -7 78 c-20 222 -82 378 -294
737 -182 307 -232 450 -232 664 0 469 379 782 894 738 269 -23 506 -177 620
-403 48 -96 66 -172 73 -299 11 -228 -38 -374 -243 -721 -195 -331 -262 -500
-280 -711 l-7 -83 125 0 125 0 6 73 c10 132 75 296 211 525 176 298 242 438
286 602 31 119 39 349 16 473 -88 467 -472 780 -981 799 -49 2 -108 3 -130 1z"/>
<path d="M2671 3015 l2 -125 258 0 259 0 0 125 0 125 -261 0 -260 0 2 -125z"/>
<path d="M5820 3015 l0 -125 258 0 257 0 3 125 3 125 -261 0 -260 0 0 -125z"/>
<path d="M3100 2379 c-85 -38 -183 -83 -217 -99 l-62 -28 51 -114 c27 -62 51
-114 52 -115 5 -5 441 198 444 207 6 17 -89 220 -102 220 -6 -1 -81 -32 -166
-71z"/>
<path d="M5723 2422 c-3 -9 -23 -59 -45 -111 -21 -52 -37 -99 -35 -104 4 -13
441 -187 448 -179 11 11 92 222 88 226 -2 3 -104 45 -227 95 -194 78 -224 88
-229 73z"/>
<path d="M4075 1355 c-38 -37 -31 -108 14 -142 12 -9 118 -12 418 -13 l401 0
26 31 c15 17 26 43 26 59 0 16 -11 42 -26 59 l-26 31 -404 0 -405 0 -24 -25z"/>
<path d="M4125 1071 c-73 -31 -78 -138 -8 -170 16 -7 144 -11 393 -11 l368 0
31 26 c42 35 44 98 5 135 l-26 24 -371 2 c-205 1 -381 -2 -392 -6z"/>
<path d="M4170 769 c0 -4 46 -48 102 -98 115 -103 123 -106 258 -99 83 5 93 7
133 39 81 63 180 159 166 160 -53 6 -659 3 -659 -2z"/>
</g>
</svg>
